<?xml version="1.0" encoding="utf-8"?>
<!-- Generator: Adobe Illustrator 16.0.0, SVG Export Plug-In . SVG Version: 6.00 Build 0)  -->
<!DOCTYPE svg PUBLIC "-//W3C//DTD SVG 1.1//EN" "http://www.w3.org/Graphics/SVG/1.1/DTD/svg11.dtd">
<svg version="1.1" id="Layer_1" xmlns="http://www.w3.org/2000/svg" xmlns:xlink="http://www.w3.org/1999/xlink" x="0px" y="0px"
	 width="200px" height="200px" viewBox="0 0 200 200" enable-background="new 0 0 200 200" xml:space="preserve">
<g>
	<g>
		<path d="M48.224,20.631c-0.041,4.164-0.397,8.419,0.25,12.553c0.882,5.629,3.675,10.706,4.355,16.395c0.378,3.161,5.382,3.197,5,0
			c-0.536-4.481-1.923-8.581-3.379-12.836c-1.785-5.216-1.279-10.696-1.227-16.112C53.255,17.406,48.255,17.409,48.224,20.631
			L48.224,20.631z"/>
	</g>
</g>
<g>
	<g>
		<path d="M61.764,99.304c-4.88-8.035-4.314-18.743-4.522-27.833c-0.193-8.435,1.548-17.944-0.489-26.175
			c-0.774-3.129-5.596-1.801-4.821,1.329c1.12,4.524,0.33,9.211,0.239,13.809c-0.109,5.511,0.027,11.048,0.24,16.556
			c0.325,8.424,0.537,17.43,5.036,24.837C59.118,104.578,63.443,102.067,61.764,99.304L61.764,99.304z"/>
	</g>
</g>
<g>
	<g>
		<path d="M49.791,19.172c4.002,2.982,6.501,7.704,8.971,11.932c1.188,2.035,3.795,1.312,4.569-0.597
			c2.411-5.948,7.095-9.382,12.27-12.822c1.978-1.314,4.341-2.903,5.57-5.002c1.343-2.293,0.763-5.368,1.568-7.834
			c-1.523,0.199-3.046,0.398-4.569,0.597c4.259,6.842,2.245,15.516,4.024,23.087c0.408,1.735,2.971,2.541,4.178,1.103
			c2.777-3.307,4.86-6.346,8.425-8.906c2.787-2,5.099-4.097,6.363-7.329c-1.225,0.498-2.449,0.996-3.673,1.494
			c3.152,1.983,4.818,5.27,6.039,8.644c0.821,2.272,1.889,4.436,4.158,5.501c2.048,0.96,4.407,0.027,6.042-1.316
			c3.345-2.748,5.524-6.027,10.352-5.908c-0.804-1.055-1.607-2.11-2.411-3.165c-1.598,3.98-2.722,8.787,2.209,10.86
			c2.237,0.941,4.573,0.981,6.933,1.425c1.577,0.297,0.571,9.618,0.495,10.861c-0.46,7.5,0.674,14.895,0.787,22.385
			c0.11,7.373-1.711,14.628-1.72,22.036c-0.004,3.675-1.323,6.724-3.206,9.801c-2.412,3.943-6.169,4.131-10.324,4.02
			c-7.189-0.193-14.874,1.697-21.972,2.799c-4.456,0.692-8.259,0.695-12.439-1.118c-2.417-1.049-4.399-1.683-7.067-1.48
			c-5.183,0.395-11.47,5.381-14.916-0.607c-1.607-2.793-5.928-0.276-4.317,2.523c2.795,4.858,6.753,6.201,12.106,5.031
			c2.781-0.607,5.36-1.813,8.229-2.032c3.41-0.26,6.902,2.786,10.406,3.084c3.733,0.316,7.432-0.286,11.115-0.857
			c4.795-0.744,9.612-1.197,14.403-1.935c6.921-1.064,13.583,0.739,18.285-5.784c4.65-6.451,4.388-12.544,4.785-20.15
			c0.203-3.892,1.108-7.804,1.498-11.69c0.48-4.788-0.114-9.692-0.498-14.465c-0.611-7.592,0.911-15.372-0.432-22.864
			c-0.403-2.246-1.874-3.6-3.891-4.377c-1.325-0.511-3.202-0.462-4.569-0.658c-3.32-0.477-1.864-3.523-1.079-5.478
			c0.628-1.565-0.935-3.128-2.411-3.165c-2.951-0.073-5.508,0.757-8.069,2.184c-1.035,0.577-6.013,6.156-6.975,4.719
			c-1.359-2.028-1.831-4.748-3.052-6.91c-1.402-2.486-3.569-4.72-5.972-6.231c-1.481-0.932-3.109,0.053-3.672,1.494
			c-1.171,2.996-4.73,4.806-7.198,6.606c-2.747,2.004-4.165,4.875-6.303,7.422c1.393,0.368,2.786,0.735,4.178,1.103
			c-1.917-8.158,0.115-16.822-4.528-24.282c-1.172-1.883-3.896-1.466-4.569,0.597c-1.127,3.451-0.286,6.437-3.53,8.94
			c-2.158,1.666-4.571,2.974-6.717,4.665c-4.206,3.314-7.148,7.087-9.161,12.053c1.523-0.199,3.046-0.398,4.569-0.597
			c-2.958-5.063-5.995-10.172-10.765-13.726C49.726,12.925,47.237,17.269,49.791,19.172L49.791,19.172z"/>
	</g>
</g>
<g>
	<g>
		<path d="M73.529,79.191c0.626-3.278,0.885-6.936-0.45-10.071c-1.529-3.593-6.582-4.91-9.54-2.078
			c-3.74,3.581-2.11,9.795,2.638,11.469c3.477,1.225,9.149,1.798,10.989-2.309c1.695-3.784-1.156-7.744-4.75-9
			c-4.179-1.46-9.938,0.595-10.404,5.51c-0.455,4.794,5.309,8.589,9.629,6.927c4.757-1.831,5.104-7.958,1.858-11.366
			c-5.497-5.772-14.899,5.682-7.447,10.679c3.346,2.243,7.525,0.675,8.68-3.06c0.96-3.109-0.566-7.26-3.637-8.564
			c-3.723-1.581-7.584,0.654-8.397,4.539c-0.786,3.753,1.265,7.639,5.027,8.667c1.715,0.468,4.325,0.522,5.903-0.426
			c2.023-1.214,2.558-3.294,2.621-5.53c0.149-5.292-4.166-8.334-9.176-7.197c-3.609,0.819-6.354,4.301-7.02,7.824
			c-0.8,4.229,1.934,7.127,5.917,7.874c3.377,0.633,7.244-0.099,9.032-3.298c1.662-2.972,0.935-6.741-0.493-9.63
			c-1.361-2.754-4.224-4.855-7.364-4.66c-4.103,0.254-6.092,4.025-6.009,7.785c0.088,3.972,3.136,6.598,7.034,5.64
			c3.253-0.799,5.949-4.366,4.118-7.571c-1.599-2.799-5.919-0.281-4.317,2.523c-0.093-0.163,0.152-0.697-0.064-0.443
			c-0.251,0.295-0.525,0.42-0.858,0.603c-0.233,0.129-0.522,0.141-0.775,0.148c0.213-0.006,0.226,0.345,0.041-0.123
			c-0.408-1.035-0.326-3.839,1.379-3.608c2.559,0.346,4.361,5.314,2.709,7.283c-0.944,1.125-3.772,0.559-4.875,0.04
			c-1.872-0.881,0.425-3.95,1.274-4.768c0.959-0.924,3.627-1.602,4.292,0.026c0.272,0.667,0.352,2.026,0.068,2.698
			c-0.053,0.125,0.729-0.19-0.145,0.05c-0.483,0.133-1.149,0.006-1.64-0.025c-2.188-0.14-2.504-4.335-0.545-3.952
			c0.87,0.17,1.124,1.364,1.15,2.114c0.035,0.982-0.139,1.331-1.01,0.943c-2.198-0.978,0.701-3.285,0.989-3.044
			c1.305,1.09,0.903,3.266-0.864,3.259c-1.907-0.008-2.87-2.347-0.923-3.134c1.256-0.508,4.881,0.134,4.515,2.039
			c-0.282,1.462-5.474-0.16-6.082-1.114c-1.027-1.613,1.422-3.481,2.129-1.112c0.569,1.907,0.337,4.185-0.031,6.114
			C68.106,81.012,72.924,82.356,73.529,79.191L73.529,79.191z"/>
	</g>
</g>
<g>
	<g>
		<path d="M113.882,67.474c-1.643,0.181-3.449,0.247-4.839,1.25c-1.762,1.271-2.59,3.499-2.84,5.589
			c-0.479,4.015,3.732,6.793,7.102,7.905c3.326,1.098,7.114-0.422,7.678-4.116c0.613-4.016-1.964-8.33-5.649-9.985
			c-1.872-0.84-3.914-0.797-5.642,0.366c-1.644,1.106-3.034,3.204-2.456,5.26c0.988,3.515,5.636,4.762,8.47,2.624
			c2.778-2.096,3.7-6.831-0.16-8.292c-2.456-0.93-5.829,0.264-7.095,2.563c-1.169,2.124-0.13,4.472,1.686,5.785
			c1.616,1.168,4.194,0.889,5.924,0.193c2.007-0.808,3.911-2.386,4.026-4.708c0.145-2.943-2.662-4.938-5.166-5.729
			c-6.497-2.053-11.086,7.639-5.487,11.362c3.341,2.222,11.256,2.106,10.567-3.62c-0.163-1.353-1.014-2.5-2.5-2.5
			c-1.239,0-2.663,1.144-2.5,2.5c0.07,0.581,0.085,0.122,0.462-0.167c-0.245,0.188-0.454,0.193-0.83,0.213
			c-0.743,0.041-1.903-0.144-2.402-0.537c-0.633-0.499-0.356-2.073,0.714-2.431c0.623-0.208,1.398,0.245,1.857,0.614
			c0.468,0.376,0.243,0.314,0.328-0.133c0.038-0.198-0.131,0.094-0.186,0.132c-0.381,0.266-0.662,0.36-1.106,0.487
			c-0.176,0.051-0.832,0.116-0.772,0.124c-0.322-0.045-0.367-0.239-0.203,0.028c0.163,0.266,0.111,0.632-0.095,0.864
			c0.208-0.235,0.061-0.106,0.399-0.223c0.582-0.199,0.251-0.122,0.841-0.105c-0.274-0.044-0.271-0.034,0.01,0.032
			c-0.399-0.108-0.631-0.432-0.772-0.823c-0.263-0.731-0.033,0.382-0.736,0.434c-0.265,0.019-0.445-0.047-0.558-0.149
			c0.454,0.41-0.232,1.086,0.409,0.445c1.45-1.446,3.933,3.188,3.743,4.426c-0.08,0.529-0.072,0.526-0.771,0.414
			c-1.104-0.177-2.134-0.746-2.973-1.467c-1.32-1.137-1.59-1.06-0.72-2.885c0.359-0.755,1.36-0.646,2.242-0.743
			C117.051,72.125,117.085,67.121,113.882,67.474L113.882,67.474z"/>
	</g>
</g>
<g>
	<g>
		<path d="M85.263,105.632c-3.864,0.412-7.684,0.169-11.368,1.564c-3.065,1.161-5.31,3.932-7.299,6.404
			c-2.129,2.646-3.86,5.476-4.462,8.832c-0.719,4.005,1.123,13.677-6.14,11.248c-1.015-0.339-2.332,0.2-2.823,1.149
			c-2.691,5.2,0.406,11.019,2.05,16.072c1.998,6.138,5.966,10.862,12.272,12.601c1.266,0.349,2.777-0.417,3.075-1.746
			c0.876-3.902-1.024-6.928-2.941-10.205c-1.861-3.182-2.466-6.543,2.064-7.094c2.156-0.262,4.356,0.164,6.354,0.953
			c1.494,0.59,3.23-0.904,3.165-2.411c-0.093-2.146-0.778-3.717-1.904-5.538c-2.101-3.398-1.949-5.088,0.514-8.155
			c-1.422-0.589-2.845-1.179-4.268-1.768c0.262,3.419,0.183,6.812,0.747,10.205c0.528,3.175,5.346,1.823,4.821-1.33
			c-0.488-2.935-0.342-5.917-0.568-8.875c-0.147-1.923-2.769-3.635-4.268-1.768c-1.945,2.423-3.55,4.104-3.84,7.292
			c-0.359,3.954,3.608,6.322,3.765,9.937c1.055-0.804,2.11-1.607,3.165-2.411c-4.654-1.837-11.143-1.933-14.821,1.901
			c-1.962,2.046-1.735,5.132-1.082,7.643c0.849,3.262,5.054,6.824,4.275,10.294c1.025-0.582,2.05-1.164,3.075-1.746
			c-5.023-1.384-7.504-5.186-9.051-9.939c-1.002-3.079-3.944-8.181-2.284-11.388c-0.941,0.383-1.882,0.766-2.823,1.149
			c6.021,2.013,11.581-1.945,12.178-8.358c0.255-2.736-0.052-5.47,0.437-8.19c0.355-1.979,2.592-4.495,3.786-5.979
			c3.961-4.922,8.446-4.729,14.198-5.344C88.435,110.293,88.468,105.29,85.263,105.632L85.263,105.632z"/>
	</g>
</g>
<g>
	<g>
		<path d="M74.21,146.289c-0.03,12.552-0.431,27.429-10.82,36.156c-2.513,2.11-8.269,4.1-7.1,8.352
			c1.026,3.731,7.211,3.778,10.157,4.053c6.093,0.568,11.122-0.862,16.758-2.925c4.332-1.585,9-3.672,10.035-8.576
			c0.39-1.848-0.564-3.647-1.555-5.124c-2.225-3.313-0.199-6.161,0.923-9.313c0.816-2.292,0.799-4.855,0.634-7.243
			c-0.331-4.785,1.009,0.447,1.637,2.083c1.003,2.61,3.083,4.593,4.092,7.217c1.158,3.011,1.161,6.757,0.672,9.898
			c-0.817,5.247-5.253,7.433-0.928,12.467c2.958,3.443,9.223,2.052,13.064,2.136c4.695,0.104,12.072,3.146,16.521,1.005
			c8.974-4.318,0.459-15.802-3.604-20.494c-2.295-2.65-3.362-7.288-4.231-10.642c-0.863-3.331-2.278-6.532-3.589-9.704
			c-2.622-6.346-3.852-12.481-5.395-19.114c-0.58-2.491-1.048-5.293-0.692-7.852c-0.368,0.226-0.735,0.451-1.104,0.677
			c0.36,0.58,0.71,1.167,1.05,1.759c0.941,1.612,1.645,3.223,2.777,4.728c4.102,5.445,10.612,4.707,16.62,4.669
			c3.491-0.022,4.713,2.826,7.754,3.596c2.28,0.576,4.688,0.763,7.021,0.402c4.519-0.699,6.485-4.239,6.554-8.567
			c0.068-4.354-2.271-8.209-5.237-11.156c-4.544-4.517-8.808-6.788-15.204-5.278c-4.366,1.029-5.03-2.449-6.537-5.651
			c-1.059-2.252-2.879-4.231-4.79-5.775c-5.565-4.496-12.294-1.463-18.306-3.993c-2.971-1.25-4.255,3.591-1.33,4.822
			c6.124,2.576,12.895-0.734,18.06,4.483c3.162,3.194,3.405,8.062,7.211,10.771c1.444,1.028,3.928,0.85,5.518,0.497
			c4.63-1.027,7.224-0.553,10.805,2.662c3.597,3.229,8.663,12.354,0.188,12.354c-3.048,0-4.067-2.164-6.55-3.151
			c-2.705-1.076-5.419-1.063-8.297-0.937c-4.489,0.198-8.128-0.294-10.661-4.489c-1.332-2.204-2.212-4.482-4.021-6.372
			c-2.553-2.665-5.545-0.024-6.343,2.621c-1.319,4.371,0.647,10.035,1.388,14.363c1.114,6.508,3.536,12.369,6.006,18.451
			c2.312,5.693,2.977,13.289,6.847,18.162c0.69,0.87,10.6,13.015,5.87,13.624c-6.017,0.774-12.363-1.933-18.53-1.336
			c-4.125,0.399-6.183-1.377-4.103-5.3c1.065-2.009,1.263-4.393,1.44-6.615c0.48-5.991-1.635-10.77-4.78-15.642
			c-1.913-2.963-1.909-7.809-5.949-8.92c-4.327-1.189-5.949,2.933-5.976,6.382c-0.016,1.987,0.266,3.694-0.042,5.718
			c-0.369,2.426-2.062,4.387-2.627,6.698c-0.877,3.594,0.525,5.844,2.499,8.784c2.18,3.247-8.98,6.434-10.843,7.191
			c-4.674,1.903-10.946,1.357-15.75,0.149c0.197,0.857,0.562,0.92,1.092,0.188c0.877-0.586,1.736-1.196,2.579-1.832
			c1.867-1.364,3.606-2.841,5.129-4.58c2.517-2.874,4.17-6.332,5.554-9.856c3.269-8.331,3.415-17.86,3.437-26.68
			C79.218,143.064,74.218,143.065,74.21,146.289L74.21,146.289z"/>
	</g>
</g>
<g>
	<g>
		<path d="M137.128,125.573c0.007,0.031-0.048,0.36,0.035,0.18c-0.225,0.485-0.243,0.432-0.694,0.916
			c-0.747,0.804-1.521,1.596-2.048,2.569c-1.537,2.835,2.779,5.358,4.316,2.523c0.345-0.635,0.404-0.646,0.9-1.172
			c0.508-0.538,1.005-1.075,1.438-1.678c1.01-1.403,1.217-3.002,0.874-4.669c-0.275-1.335-1.828-2.089-3.076-1.746
			C137.497,122.876,136.854,124.239,137.128,125.573L137.128,125.573z"/>
	</g>
</g>
<g>
	<g>
		<path d="M143.05,131.823c0.073,0.308,0.082,0.341,0.025,0.1c0.04,0.671,0.117-0.32-0.054,0.321
			c0.112-0.205,0.099-0.174-0.04,0.094c-0.013,0.024-0.47,0.634-0.195,0.313c-0.112,0.124-0.232,0.242-0.358,0.353
			c0.312-0.291-0.272,0.158-0.304,0.176c-0.268,0.136-0.287,0.145-0.059,0.028c-0.644,0.227,0.432,0.027-0.224,0.055
			c-1.361,0.058-2.5,1.094-2.5,2.5c0,1.319,1.138,2.558,2.5,2.5c3.898-0.165,6.947-3.923,6.03-7.77
			c-0.316-1.325-1.797-2.098-3.076-1.746C143.449,129.118,142.734,130.498,143.05,131.823L143.05,131.823z"/>
	</g>
</g>
<g>
	<g>
		<path d="M70.46,95.5c8.225,0.023,16.447,0.28,24.671,0c6.809-0.232,12.969,2.248,19.745,1.227c3.18-0.479,1.823-5.296-1.33-4.821
			c-5.945,0.896-12.31-1.394-18.415-1.405c-8.221-0.016-16.447,0.023-24.671,0C67.236,90.491,67.237,95.491,70.46,95.5L70.46,95.5z"
			/>
	</g>
</g>
</svg>
